<svg width="512" height="512" viewBox="0 0 512 512" fill="none" xmlns="http://www.w3.org/2000/svg" xmlns:xlink="http://www.w3.org/1999/xlink" class=""><rect id="«rg»" width="512" height="512" x="0" y="0" rx="128" fill="#FFFFFF" stroke="#FFFFFF" stroke-width="0" stroke-opacity="100%" paint-order="stroke"></rect><clipPath id="clip"><use xlink:href="#«rg»"></use></clipPath><defs><linearGradient id="«rh»" gradientUnits="userSpaceOnUse" gradientTransform="rotate(45)" style="transform-origin: center center;"><stop stop-color="#FFFFFF"></stop><stop offset="1" stop-color="#7F7FD5"></stop></linearGradient><radialGradient id="«ri»" cx="0" cy="0" r="1" gradientUnits="userSpaceOnUse" gradientTransform="translate(256) rotate(90) scale(512)"><stop stop-color="white"></stop><stop offset="1" stop-color="white" stop-opacity="0"></stop></radialGradient></defs><svg xmlns="http://www.w3.org/2000/svg" fill="none" viewBox="0 0 16 16" width="352" height="352" x="80" y="80" alignment-baseline="middle" style="color: rgb(56, 56, 56);"><path fill="currentColor" fill-rule="evenodd" d="M6.32.37a.75.75 0 0 0 0 1.5h3.36a.75.75 0 1 0 0-1.5H6.32ZM1.87 6.415a.75.75 0 0 0-1.5 0v3.322a.75.75 0 1 0 1.5 0V6.415Zm3.7 8.465a.75.75 0 0 1 .75-.75h3.36a.75.75 0 0 1 0 1.5H6.32a.75.75 0 0 1-.75-.75Zm10.06-8.465a.75.75 0 0 0-1.5 0v3.322a.75.75 0 1 0 1.5 0V6.415ZM1.17 11.893a.75.75 0 0 0-.598.876 3 3 0 0 0 .277.83c.341.663.885 1.2 1.553 1.536.272.137.557.222.863.276a.75.75 0 1 0 .262-1.476 1.6 1.6 0 0 1-.45-.14 2.034 2.034 0 0 1-.895-.883 1.512 1.512 0 0 1-.136-.421.75.75 0 0 0-.876-.598Zm14.216.876a.75.75 0 1 0-1.474-.278c-.035.182-.08.313-.136.42a2.034 2.034 0 0 1-.894.884 1.6 1.6 0 0 1-.451.14.75.75 0 1 0 .262 1.476 3.09 3.09 0 0 0 .863-.276 3.535 3.535 0 0 0 1.554-1.536 3 3 0 0 0 .276-.83Zm-.599-8.664a.75.75 0 0 0 .598-.876 3 3 0 0 0-.276-.83A3.534 3.534 0 0 0 13.555.863a3.09 3.09 0 0 0-.863-.276.75.75 0 1 0-.262 1.477c.197.035.336.081.45.139.387.195.7.504.895.883.056.108.101.239.136.422a.75.75 0 0 0 .876.597ZM.572 3.23a.75.75 0 1 0 1.474.279 1.51 1.51 0 0 1 .136-.422c.195-.379.508-.688.894-.883.115-.058.254-.104.451-.14A.75.75 0 1 0 3.265.588a3.09 3.09 0 0 0-.864.276A3.535 3.535 0 0 0 .849 2.4a3 3 0 0 0-.276.83Z" clip-rule="evenodd"></path></svg></svg>